<?xml version="1.0" encoding="UTF-8" standalone="no"?>
<!DOCTYPE svg PUBLIC "-//W3C//DTD SVG 1.1//EN" "http://www.w3.org/Graphics/SVG/1.1/DTD/svg11.dtd">
<svg width="100%" height="100%" viewBox="0 0 506 90" version="1.1" xmlns="http://www.w3.org/2000/svg" xmlns:xlink="http://www.w3.org/1999/xlink" xml:space="preserve" xmlns:serif="http://www.serif.com/" style="fill-rule:evenodd;clip-rule:evenodd;stroke-linejoin:round;stroke-miterlimit:2;">
    <g transform="matrix(1,0,0,1,-621,-387)">
        <g id="Artboard1" transform="matrix(0.980949,0,0,0.376396,11.5237,241.287)">
            <rect x="621.313" y="387.128" width="515.647" height="237.171" style="fill:none;"/>
            <g transform="matrix(3.05715,0,0,7.96743,-226.383,-7135.14)">
                <g transform="matrix(40,0,0,40,279.566,972.287)">
                    <path d="M0.658,-0.212C0.672,-0.254 0.68,-0.294 0.68,-0.325C0.68,-0.387 0.642,-0.425 0.575,-0.425C0.518,-0.425 0.465,-0.394 0.437,-0.345C0.432,-0.388 0.402,-0.425 0.338,-0.425C0.279,-0.425 0.229,-0.4 0.198,-0.347L0.213,-0.417L0.199,-0.42C0.165,-0.419 0.115,-0.413 0.078,-0.406L0.067,-0.37C0.103,-0.371 0.118,-0.365 0.118,-0.347C0.118,-0.337 0.113,-0.32 0.102,-0.286L0.04,-0.096C0.025,-0.05 0.008,-0.037 -0.036,-0.034L-0.046,0.003C-0.02,0.001 0.019,-0 0.057,-0C0.089,-0 0.123,0.001 0.15,0.003L0.163,-0.034C0.134,-0.035 0.121,-0.039 0.121,-0.057C0.121,-0.064 0.123,-0.073 0.126,-0.084L0.185,-0.264C0.206,-0.33 0.245,-0.366 0.3,-0.366C0.333,-0.366 0.349,-0.346 0.349,-0.313C0.349,-0.291 0.342,-0.265 0.33,-0.23L0.286,-0.094C0.271,-0.049 0.254,-0.037 0.216,-0.034L0.206,0.003C0.233,0.001 0.27,-0 0.306,-0C0.337,-0 0.371,0.001 0.397,0.003L0.41,-0.034C0.38,-0.035 0.367,-0.041 0.367,-0.058C0.367,-0.067 0.37,-0.078 0.376,-0.095L0.429,-0.259C0.455,-0.338 0.495,-0.366 0.54,-0.366C0.574,-0.366 0.591,-0.345 0.591,-0.31C0.591,-0.286 0.583,-0.254 0.572,-0.222L0.531,-0.096C0.516,-0.049 0.502,-0.037 0.461,-0.034L0.45,0.003C0.478,0.001 0.515,-0 0.55,-0C0.581,-0 0.614,0.001 0.642,0.003L0.655,-0.034C0.623,-0.035 0.612,-0.04 0.612,-0.057C0.612,-0.065 0.615,-0.078 0.621,-0.097L0.658,-0.212Z" style="fill:rgb(246,246,246);fill-rule:nonzero;"/>
                </g>
                <g transform="matrix(40,0,0,40,307.886,972.287)">
                    <path d="M0.372,-0.062C0.372,-0.075 0.376,-0.091 0.387,-0.127L0.482,-0.417L0.467,-0.42C0.426,-0.42 0.367,-0.415 0.326,-0.408L0.316,-0.372C0.351,-0.372 0.366,-0.363 0.366,-0.348C0.366,-0.337 0.361,-0.32 0.35,-0.288L0.316,-0.183C0.286,-0.092 0.231,-0.039 0.174,-0.039C0.14,-0.039 0.121,-0.055 0.121,-0.088C0.121,-0.108 0.128,-0.135 0.144,-0.183L0.219,-0.417L0.204,-0.42C0.163,-0.42 0.104,-0.415 0.064,-0.408L0.053,-0.372C0.087,-0.372 0.104,-0.364 0.104,-0.348C0.104,-0.338 0.098,-0.321 0.09,-0.296L0.058,-0.198C0.041,-0.145 0.032,-0.109 0.032,-0.083C0.032,-0.022 0.072,0.01 0.144,0.01C0.217,0.01 0.271,-0.029 0.308,-0.09L0.28,0.001L0.295,0.007C0.328,0.008 0.379,0.005 0.405,0.001L0.415,-0.034C0.384,-0.035 0.372,-0.042 0.372,-0.062Z" style="fill:rgb(246,246,246);fill-rule:nonzero;"/>
                </g>
                <g transform="matrix(40,0,0,40,327.686,972.287)">
                    <path d="M0.23,-0.382C0.292,-0.382 0.311,-0.346 0.313,-0.287L0.354,-0.287L0.396,-0.422L0.355,-0.422L0.335,-0.381C0.316,-0.409 0.28,-0.425 0.226,-0.425C0.129,-0.425 0.061,-0.374 0.061,-0.295C0.061,-0.173 0.239,-0.177 0.239,-0.098C0.239,-0.059 0.207,-0.032 0.158,-0.032C0.081,-0.032 0.051,-0.078 0.048,-0.144L0.007,-0.144L-0.034,-0L0.008,-0L0.032,-0.05C0.052,-0.014 0.094,0.01 0.16,0.01C0.247,0.01 0.318,-0.042 0.318,-0.123C0.318,-0.239 0.141,-0.237 0.141,-0.315C0.141,-0.353 0.176,-0.382 0.23,-0.382Z" style="fill:rgb(246,246,246);fill-rule:nonzero;"/>
                </g>
                <g transform="matrix(40,0,0,40,342.566,972.287)">
                    <path d="M0.229,-0.5C0.261,-0.5 0.293,-0.525 0.293,-0.563C0.293,-0.599 0.261,-0.627 0.229,-0.627C0.196,-0.627 0.165,-0.599 0.165,-0.563C0.165,-0.525 0.197,-0.5 0.229,-0.5ZM-0.044,0.003C-0.015,0.001 0.022,-0 0.059,-0C0.091,-0 0.13,0.001 0.156,0.003L0.169,-0.034C0.14,-0.036 0.126,-0.041 0.126,-0.059C0.126,-0.069 0.129,-0.083 0.136,-0.103L0.237,-0.417L0.223,-0.42C0.183,-0.42 0.119,-0.414 0.081,-0.406L0.069,-0.37C0.104,-0.371 0.121,-0.366 0.121,-0.347C0.121,-0.335 0.112,-0.307 0.101,-0.274L0.043,-0.096C0.028,-0.048 0.009,-0.037 -0.034,-0.034L-0.044,0.003Z" style="fill:rgb(246,246,246);fill-rule:nonzero;"/>
                </g>
                <g transform="matrix(40,0,0,40,352.046,972.287)">
                    <path d="M0.184,0.01C0.269,0.01 0.341,-0.032 0.375,-0.097L0.343,-0.116C0.31,-0.066 0.258,-0.037 0.206,-0.037C0.142,-0.037 0.106,-0.078 0.106,-0.154C0.106,-0.277 0.194,-0.383 0.291,-0.383C0.339,-0.383 0.358,-0.361 0.358,-0.333C0.358,-0.316 0.349,-0.313 0.349,-0.298C0.349,-0.28 0.365,-0.269 0.385,-0.269C0.415,-0.269 0.433,-0.294 0.433,-0.326C0.433,-0.379 0.38,-0.425 0.288,-0.425C0.134,-0.425 0.018,-0.295 0.018,-0.149C0.018,-0.044 0.086,0.01 0.184,0.01Z" style="fill:rgb(246,246,246);fill-rule:nonzero;"/>
                </g>
                <g transform="matrix(40,0,0,40,369.006,972.287)">
                    <path d="M0.423,-0.21C0.439,-0.261 0.446,-0.295 0.446,-0.325C0.446,-0.388 0.407,-0.425 0.341,-0.425C0.296,-0.425 0.253,-0.411 0.222,-0.379L0.322,-0.689L0.31,-0.693C0.268,-0.691 0.204,-0.684 0.16,-0.675L0.149,-0.639C0.19,-0.639 0.204,-0.633 0.204,-0.613C0.204,-0.605 0.199,-0.587 0.187,-0.55L0.039,-0.096C0.024,-0.05 0.008,-0.037 -0.037,-0.034L-0.047,0.003C-0.019,0.001 0.02,-0 0.055,-0C0.086,-0 0.125,0.001 0.149,0.003L0.162,-0.034C0.135,-0.035 0.12,-0.038 0.12,-0.057C0.12,-0.065 0.123,-0.075 0.128,-0.09L0.184,-0.262C0.204,-0.326 0.244,-0.366 0.303,-0.366C0.338,-0.366 0.357,-0.348 0.357,-0.311C0.357,-0.291 0.351,-0.264 0.342,-0.234L0.297,-0.096C0.281,-0.049 0.265,-0.037 0.224,-0.034L0.214,0.003C0.239,0.001 0.275,-0 0.313,-0C0.345,-0 0.382,0.001 0.407,0.002L0.42,-0.034C0.391,-0.035 0.377,-0.041 0.377,-0.058C0.377,-0.07 0.383,-0.085 0.39,-0.107L0.423,-0.21Z" style="fill:rgb(246,246,246);fill-rule:nonzero;"/>
                </g>
                <g transform="matrix(40,0,0,40,388.166,972.287)">
                    <path d="M0.193,0.01C0.355,0.01 0.473,-0.127 0.473,-0.268C0.473,-0.369 0.408,-0.425 0.3,-0.425C0.138,-0.425 0.017,-0.298 0.017,-0.147C0.017,-0.048 0.085,0.01 0.193,0.01ZM0.196,-0.033C0.144,-0.033 0.106,-0.069 0.106,-0.146C0.106,-0.272 0.197,-0.382 0.297,-0.382C0.358,-0.382 0.384,-0.343 0.384,-0.27C0.384,-0.173 0.305,-0.033 0.196,-0.033Z" style="fill:none;fill-rule:nonzero;"/>
                </g>
                <g transform="matrix(40,0,0,40,407.526,972.287)">
                    <path d="M0.329,-0.427C0.274,-0.427 0.224,-0.398 0.191,-0.33L0.209,-0.417L0.194,-0.42C0.164,-0.419 0.115,-0.413 0.078,-0.406L0.067,-0.37C0.101,-0.371 0.118,-0.366 0.118,-0.347C0.118,-0.335 0.113,-0.319 0.105,-0.294L0.04,-0.095C0.025,-0.052 0.009,-0.037 -0.036,-0.034L-0.046,0.003C-0.027,0.001 0.019,-0 0.058,-0C0.096,-0 0.129,0.001 0.154,0.003L0.167,-0.034C0.134,-0.035 0.121,-0.04 0.121,-0.057C0.121,-0.068 0.125,-0.081 0.139,-0.126L0.173,-0.23C0.201,-0.317 0.244,-0.358 0.307,-0.358C0.329,-0.358 0.345,-0.355 0.355,-0.349L0.385,-0.417C0.374,-0.422 0.355,-0.427 0.329,-0.427Z" style="fill:rgb(246,246,246);fill-rule:nonzero;"/>
                </g>
                <g transform="matrix(40,0,0,40,420.566,972.287)">
                    <path d="M0.412,-0.062C0.412,-0.075 0.416,-0.092 0.429,-0.131L0.611,-0.689L0.599,-0.693C0.557,-0.692 0.493,-0.685 0.446,-0.675L0.437,-0.639C0.476,-0.639 0.494,-0.634 0.494,-0.614C0.494,-0.606 0.489,-0.592 0.479,-0.562L0.409,-0.345C0.395,-0.389 0.36,-0.425 0.286,-0.425C0.136,-0.425 0.014,-0.285 0.014,-0.139C0.014,-0.039 0.078,0.01 0.165,0.01C0.242,0.01 0.311,-0.036 0.354,-0.103L0.321,0.001L0.336,0.007C0.369,0.008 0.414,0.005 0.445,0.001L0.455,-0.034C0.423,-0.035 0.412,-0.042 0.412,-0.062ZM0.191,-0.039C0.137,-0.039 0.104,-0.074 0.104,-0.145C0.104,-0.249 0.186,-0.375 0.299,-0.375C0.355,-0.375 0.383,-0.342 0.383,-0.278C0.383,-0.195 0.3,-0.039 0.191,-0.039Z" style="fill:rgb(246,246,246);fill-rule:nonzero;"/>
                </g>
            </g>
            <g transform="matrix(-1.38419,0,0,5.34359,2216.83,-1903.8)">
                <g transform="matrix(0.907105,-0.335364,0.401501,1.08599,764.692,409.951)">
                    <ellipse cx="101.056" cy="76.665" rx="9.193" ry="9.789" style="fill:rgb(13,235,92);"/>
                </g>
                <g transform="matrix(1,0,0,1,787.951,359.193)">
                    <path d="M98.6,87.9C108.3,87.9 119,91.2 119,100.1C119,109.2 106.7,111.9 98.8,111.9L100.9,109.9C105.4,109.9 107.9,107.3 107.9,102.1C107.9,94.7 102.4,89.8 97.5,89.8C91.9,89.8 91,94.3 91,97.4C91.1,105.8 97.4,109.9 100.9,109.9L98.8,111.9C92,111.9 79.9,108.9 80,99.7C80.1,90.8 91.1,87.8 98.6,87.9Z" style="fill:rgb(246,246,246);fill-rule:nonzero;"/>
                </g>
            </g>
        </g>
    </g>
</svg>
